P3
# Created by GIMP version 2.10.32 PNM plug-in
48 71
255
255
255
255
255
255
255
255
255
255
255
255
255
255
255
255
255
255
255
255
255
255
255
255
255
255
255
255
255
255
255
255
255
255
255
255
255
255
255
255
255
255
255
255
255
255
255
255
255
255
255
255
255
255
255
255
255
255
255
255
255
255
255
255
255
255
255
255
255
255
255
255
255
255
255
255
255
255
255
255
255
255
255
255
255
255
255
255
255
255
255
255
255
255
255
255
255
255
255
255
255
255
255
255
255
255
255
255
255
255
255
255
255
255
255
255
255
255
255
255
255
255
255
255
255
255
255
255
255
255
255
255
255
255
255
255
255
255
255
255
255
255
255
255
255
255
255
255
255
255
255
255
255
255
255
255
255
255
255
255
255
255
255
255
255
255
255
255
255
255
255
255
255
255
255
255
255
255
255
255
255
255
255
255
255
255
255
255
255
255
255
255
255
255
255
255
255
255
255
255
255
255
255
255
255
255
255
255
255
255
255
255
255
255
255
255
255
0
0
0
0
0
0
0
0
0
0
0
0
255
255
255
255
255
255
255
255
255
255
255
255
255
255
255
255
255
255
255
255
255
255
255
255
255
255
255
255
255
255
255
255
255
255
255
255
255
255
255
255
255
255
255
255
255
255
255
255
255
255
255
255
255
255
255
255
255
255
255
255
255
255
255
255
255
255
255
255
255
255
255
255
255
255
255
255
255
255
255
255
255
255
255
255
255
255
255
255
255
255
255
255
255
255
255
255
255
255
255
255
255
255
255
255
255
255
255
255
255
255
255
255
255
255
255
255
255
255
255
255
255
255
255
255
255
255
115
49
33
115
49
33
222
82
66
222
82
66
222
82
66
222
82
66
115
49
33
0
0
0
255
255
255
255
255
255
255
255
255
255
255
255
255
255
255
255
255
255
255
255
255
255
255
255
255
255
255
255
255
255
255
255
255
255
255
255
255
255
255
255
255
255
255
255
255
255
255
255
255
255
255
255
255
255
255
255
255
255
255
255
255
255
255
255
255
255
255
255
255
255
255
255
255
255
255
255
255
255
255
255
255
255
255
255
255
255
255
255
255
255
255
255
255
255
255
255
255
255
255
255
255
255
255
255
255
255
255
255
255
255
255
255
255
255
255
255
255
115
49
33
222
82
66
222
82
66
173
59
33
173
59
33
222
82
66
222
82
66
222
82
66
222
82
66
0
0
0
255
255
255
255
255
255
255
255
255
255
255
255
255
255
255
255
255
255
255
255
255
255
255
255
255
255
255
255
255
255
255
255
255
115
49
33
115
49
33
255
255
255
255
255
255
255
255
255
255
255
255
255
255
255
255
255
255
255
255
255
255
255
255
255
255
255
255
255
255
255
255
255
255
255
255
255
255
255
255
255
255
255
255
255
255
255
255
255
255
255
255
255
255
255
255
255
255
255
255
255
255
255
255
255
255
255
255
255
255
255
255
115
49
33
222
82
66
222
82
66
222
82
66
222
82
66
222
82
66
173
59
33
173
59
33
173
59
33
222
82
66
0
0
0
255
255
255
255
255
255
255
255
255
255
255
255
255
255
255
255
255
255
255
255
255
255
255
255
255
255
255
115
49
33
115
49
33
222
82
66
222
82
66
115
49
33
255
255
255
255
255
255
255
255
255
255
255
255
255
255
255
255
255
255
255
255
255
255
255
255
255
255
255
255
255
255
255
255
255
255
255
255
255
255
255
255
255
255
255
255
255
255
255
255
255
255
255
255
255
255
255
255
255
255
255
255
255
255
255
255
255
255
255
255
255
115
49
33
222
82
66
222
82
66
222
82
66
222
82
66
222
82
66
222
82
66
222
82
66
222
82
66
222
82
66
173
59
33
0
0
0
255
255
255
255
255
255
255
255
255
255
255
255
255
255
255
255
255
255
255
255
255
115
49
33
222
82
66
222
82
66
0
0
0
0
0
0
0
0
0
255
255
255
255
255
255
255
255
255
255
255
255
255
255
255
255
255
255
255
255
255
255
255
255
255
255
255
255
255
255
255
255
255
255
255
255
255
255
255
255
255
255
255
255
255
255
255
255
255
255
255
255
255
255
255
255
255
255
255
255
115
49
33
115
49
33
115
49
33
222
82
66
222
82
66
222
82
66
222
82
66
222
82
66
222
82
66
222
82
66
222
82
66
222
82
66
222
82
66
173
59
33
155
49
33
255
255
255
255
255
255
255
255
255
255
255
255
255
255
255
255
255
255
255
255
255
115
49
33
222
82
66
0
0
0
173
59
33
173
59
33
173
59
33
0
0
0
255
255
255
255
255
255
255
255
255
255
255
255
255
255
255
255
255
255
255
255
255
255
255
255
255
255
255
255
255
255
255
255
255
255
255
255
255
255
255
255
255
255
255
255
255
255
255
255
115
49
33
115
49
33
173
59
33
222
82
66
222
82
66
49
66
99
25
33
49
222
82
66
222
82
66
222
82
66
222
82
66
222
82
66
222
82
66
222
82
66
222
82
66
173
59
33
173
59
33
25
33
49
0
0
0
255
255
255
255
255
255
255
255
255
255
255
255
255
255
255
115
49
33
222
82
66
222
82
66
0
0
0
255
255
255
181
181
197
173
59
33
173
59
33
0
0
0
255
255
255
255
255
255
255
255
255
255
255
255
255
255
255
255
255
255
255
255
255
255
255
255
255
255
255
255
255
255
255
255
255
255
255
255
255
255
255
255
255
255
115
49
33
222
82
66
222
82
66
222
82
66
222
82
66
222
82
66
49
66
99
49
66
99
25
33
49
25
33
49
222
82
66
222
82
66
222
82
66
222
82
66
222
82
66
173
59
33
25
33
49
25
33
49
49
66
99
25
33
49
0
0
0
255
255
255
255
255
255
255
255
255
255
255
255
115
49
33
173
59
33
222
82
66
115
49
33
181
181
197
115
49
33
115
49
33
173
59
33
0
0
0
255
255
255
255
255
255
255
255
255
255
255
255
255
255
255
255
255
255
255
255
255
255
255
255
255
255
255
255
255
255
255
255
255
255
255
255
255
255
255
255
255
255
0
0
0
222
82
66
222
82
66
222
82
66
222
82
66
222
82
66
25
33
49
49
66
99
49
66
99
49
66
99
25
33
49
25
33
49
25
33
49
25
33
49
25
33
49
25
33
49
49
66
99
49
66
99
49
66
99
25
33
49
173
59
33
155
49
33
0
0
0
0
0
0
255
255
255
115
49
33
173
59
33
173
59
33
173
59
33
115
49
33
173
59
33
115
49
33
181
181
197
0
0
0
255
255
255
255
255
255
255
255
255
255
255
255
255
255
255
255
255
255
255
255
255
255
255
255
255
255
255
255
255
255
255
255
255
255
255
255
255
255
255
255
255
255
255
255
255
0
0
0
222
82
66
222
82
66
222
82
66
222
82
66
222
82
66
25
33
49
25
33
49
49
66
99
49
66
99
49
66
99
49
66
99
49
66
99
49
66
99
49
66
99
49
66
99
25
33
49
25
33
49
173
59
33
173
59
33
173
59
33
173
59
33
173
59
33
0
0
0
115
49
33
115
49
33
173
59
33
173
59
33
173
59
33
115
49
33
181
181
197
0
0
0
255
255
255
255
255
255
255
255
255
255
255
255
255
255
255
255
255
255
255
255
255
255
255
255
255
255
255
255
255
255
255
255
255
255
255
255
255
255
255
255
255
255
255
255
255
255
255
255
255
255
255
0
0
0
222
82
66
222
82
66
222
82
66
222
82
66
222
82
66
222
82
66
25
33
49
25
33
49
25
33
49
25
33
49
25
33
49
25
33
49
25
33
49
25
33
49
173
59
33
173
59
33
173
59
33
173
59
33
173
59
33
173
59
33
173
59
33
0
0
0
173
59
33
173
59
33
115
49
33
173
59
33
173
59
33
0
0
0
0
0
0
255
255
255
255
255
255
255
255
255
255
255
255
255
255
255
255
255
255
255
255
255
255
255
255
255
255
255
255
255
255
255
255
255
255
255
255
255
255
255
255
255
255
255
255
255
255
255
255
255
255
255
255
255
255
255
255
255
0
0
0
0
0
0
173
59
33
222
82
66
222
82
66
222
82
66
222
82
66
222
82
66
222
82
66
222
82
66
222
82
66
222
82
66
173
59
33
173
59
33
173
59
33
173
59
33
173
59
33
173
59
33
173
59
33
115
49
33
0
0
0
115
49
33
115
49
33
173
59
33
173
59
33
173
59
33
0
0
0
255
255
255
255
255
255
255
255
255
255
255
255
255
255
255
255
255
255
255
255
255
255
255
255
255
255
255
255
255
255
255
255
255
255
255
255
255
255
255
255
255
255
255
255
255
255
255
255
255
255
255
255
255
255
255
255
255
49
25
8
49
25
8
82
41
16
82
41
16
0
0
0
115
49
33
181
181
197
0
0
0
115
49
33
222
82
66
222
82
66
222
82
66
222
82
66
222
82
66
222
82
66
173
59
33
115
49
33
0
0
0
0
0
0
0
0
0
25
33
49
255
255
255
25
33
49
190
108
49
190
108
49
115
49
33
173
59
33
115
49
33
255
255
255
255
255
255
255
255
255
255
255
255
255
255
255
255
255
255
255
255
255
255
255
255
255
255
255
255
255
255
255
255
255
255
255
255
255
255
255
255
255
255
255
255
255
255
255
255
255
255
255
255
255
255
255
255
255
49
25
8
82
41
16
82
41
16
82
41
16
82
41
16
82
41
16
190
108
49
255
255
255
0
0
0
190
108
49
115
49
33
115
49
33
115
49
33
0
0
0
181
181
197
0
0
0
0
0
0
0
0
0
82
41
16
49
25
8
49
25
8
49
25
8
49
25
8
141
71
58
190
108
49
190
108
49
190
108
49
115
49
33
0
0
0
255
255
255
255
255
255
255
255
255
255
255
255
255
255
255
255
255
255
255
255
255
255
255
255
255
255
255
255
255
255
255
255
255
255
255
255
255
255
255
255
255
255
255
255
255
255
255
255
255
255
255
255
255
255
255
255
255
49
25
8
82
41
16
82
41
16
82
41
16
49
25
8
82
41
16
0
0
0
190
108
49
190
108
49
190
108
49
247
164
132
247
164
132
247
164
132
49
66
99
255
255
255
190
108
49
82
41
16
82
41
16
0
0
0
49
25
8
49
25
8
49
25
8
141
71
58
190
108
49
190
108
49
190
108
49
0
0
0
255
255
255
255
255
255
255
255
255
255
255
255
255
255
255
255
255
255
255
255
255
255
255
255
255
255
255
255
255
255
255
255
255
255
255
255
255
255
255
255
255
255
255
255
255
255
255
255
255
255
255
255
255
255
255
255
255
255
255
255
255
255
255
49
25
8
82
41
16
82
41
16
82
41
16
82
41
16
49
25
8
0
0
0
190
108
49
190
108
49
247
164
132
247
164
132
247
164
132
247
164
132
247
164
132
247
164
132
82
41
16
82
41
16
82
41
16
0
0
0
49
25
8
141
71
58
141
71
58
141
71
58
190
108
49
190
108
49
190
108
49
0
0
0
255
255
255
255
255
255
255
255
255
255
255
255
255
255
255
255
255
255
255
255
255
255
255
255
255
255
255
255
255
255
255
255
255
255
255
255
255
255
255
255
255
255
255
255
255
255
255
255
255
255
255
255
255
255
255
255
255
255
255
255
255
255
255
255
255
255
49
25
8
82
41
16
82
41
16
115
49
33
222
82
66
115
49
33
0
0
0
190
108
49
190
108
49
247
164
132
247
164
132
247
164
132
247
164
132
82
41
16
82
41
16
82
41
16
0
0
0
25
33
49
25
33
49
190
108
49
190
108
49
190
108
49
141
71
58
190
108
49
0
0
0
255
255
255
255
255
255
255
255
255
255
255
255
255
255
255
255
255
255
255
255
255
255
255
255
255
255
255
255
255
255
255
255
255
255
255
255
255
255
255
255
255
255
255
255
255
255
255
255
255
255
255
255
255
255
255
255
255
255
255
255
255
255
255
255
255
255
255
255
255
49
25
8
82
41
16
82
41
16
115
49
33
222
82
66
222
82
66
222
82
66
115
49
33
115
49
33
190
108
49
115
49
33
222
82
66
247
164
132
247
164
132
115
49
33
0
0
0
115
49
33
49
66
99
49
66
99
25
33
49
190
108
49
190
108
49
141
71
58
141
71
58
0
0
0
255
255
255
255
255
255
255
255
255
255
255
255
255
255
255
255
255
255
255
255
255
255
255
255
255
255
255
255
255
255
255
255
255
255
255
255
255
255
255
255
255
255
255
255
255
255
255
255
255
255
255
255
255
255
255
255
255
255
255
255
255
255
255
255
255
255
49
25
8
82
41
16
0
0
0
49
66
99
25
33
49
25
33
49
222
82
66
222
82
66
222
82
66
222
82
66
115
49
33
190
108
49
222
82
66
115
49
33
0
0
0
173
59
33
222
82
66
173
59
33
115
49
33
49
66
99
25
33
49
190
108
49
141
71
58
141
71
58
82
41
16
82
41
16
0
0
0
255
255
255
255
255
255
255
255
255
255
255
255
255
255
255
255
255
255
255
255
255
255
255
255
255
255
255
255
255
255
255
255
255
255
255
255
255
255
255
0
0
0
0
0
0
255
255
255
255
255
255
255
255
255
255
255
255
255
255
255
49
25
8
82
41
16
190
108
49
190
108
49
49
66
99
49
66
99
49
66
99
25
33
49
222
82
66
222
82
66
222
82
66
222
82
66
115
49
33
0
0
0
0
0
0
173
59
33
173
59
33
173
59
33
222
82
66
115
49
33
49
66
99
25
33
49
141
71
58
82
41
16
82
41
16
82
41
16
82
41
16
0
0
0
255
255
255
255
255
255
255
255
255
255
255
255
255
255
255
255
255
255
255
255
255
255
255
255
255
255
255
255
255
255
255
255
255
255
255
255
0
0
0
222
82
66
222
82
66
0
0
0
0
0
0
173
59
33
173
59
33
190
108
49
247
164
132
190
108
49
247
164
132
247
164
132
190
108
49
49
66
99
49
66
99
25
33
49
222
82
66
222
82
66
222
82
66
222
82
66
115
49
33
190
108
49
0
0
0
173
59
33
173
59
33
173
59
33
222
82
66
115
49
33
49
66
99
25
33
49
82
41
16
82
41
16
82
41
16
82
41
16
82
41
16
0
0
0
255
255
255
255
255
255
255
255
255
255
255
255
255
255
255
255
255
255
255
255
255
255
255
255
255
255
255
255
255
255
255
255
255
255
255
255
0
0
0
173
59
33
222
82
66
222
82
66
173
59
33
115
49
33
222
82
66
173
59
33
247
164
132
247
164
132
190
108
49
247
164
132
247
164
132
190
108
49
49
66
99
25
33
49
222
82
66
222
82
66
222
82
66
222
82
66
115
49
33
25
33
49
49
66
99
0
0
0
173
59
33
173
59
33
222
82
66
115
49
33
0
0
0
82
41
16
82
41
16
82
41
16
82
41
16
82
41
16
82
41
16
0
0
0
255
255
255
255
255
255
255
255
255
255
255
255
255
255
255
255
255
255
255
255
255
255
255
255
255
255
255
255
255
255
255
255
255
0
0
0
173
59
33
0
0
0
0
0
0
173
59
33
222
82
66
222
82
66
173
59
33
222
82
66
173
59
33
247
164
132
190
108
49
247
164
132
247
164
132
190
108
49
49
66
99
49
66
99
115
49
33
115
49
33
222
82
66
222
82
66
115
49
33
49
66
99
49
66
99
49
66
99
25
33
49
115
49
33
115
49
33
0
0
0
82
41
16
82
41
16
82
41
16
82
41
16
82
41
16
0
0
0
0
0
0
255
255
255
255
255
255
255
255
255
255
255
255
255
255
255
255
255
255
255
255
255
255
255
255
255
255
255
255
255
255
255
255
255
0
0
0
222
82
66
115
49
33
222
82
66
115
49
33
115
49
33
115
49
33
222
82
66
173
59
33
222
82
66
173
59
33
247
164
132
247
164
132
190
108
49
141
71
58
49
66
99
49
66
99
49
66
99
222
82
66
222
82
66
173
59
33
115
49
33
49
66
99
49
66
99
49
66
99
49
66
99
49
66
99
25
33
49
0
0
0
49
25
8
82
41
16
82
41
16
82
41
16
82
41
16
0
0
0
255
255
255
255
255
255
255
255
255
255
255
255
255
255
255
255
255
255
255
255
255
255
255
255
255
255
255
255
255
255
255
255
255
255
255
255
0
0
0
0
0
0
222
82
66
115
49
33
222
82
66
115
49
33
173
59
33
0
0
0
222
82
66
173
59
33
222
82
66
173
59
33
247
164
132
90
59
74
90
59
74
90
59
74
25
33
49
25
33
49
222
82
66
222
82
66
222
82
66
173
59
33
222
82
66
115
49
33
49
66
99
49
66
99
49
66
99
49
66
99
0
0
0
222
82
66
0
0
0
82
41
16
82
41
16
82
41
16
49
25
8
49
25
8
0
0
0
255
255
255
255
255
255
255
255
255
255
255
255
255
255
255
255
255
255
255
255
255
255
255
255
255
255
255
255
255
255
255
255
255
0
0
0
222
82
66
115
49
33
173
59
33
115
49
33
222
82
66
0
0
0
222
82
66
222
82
66
115
49
33
222
82
66
90
59
74
90
59
74
255
255
255
255
255
255
115
49
33
222
82
66
222
82
66
222
82
66
222
82
66
222
82
66
173
59
33
222
82
66
115
49
33
25
33
49
49
66
99
49
66
99
25
33
49
0
0
0
222
82
66
0
0
0
49
25
8
49
25
8
49
25
8
49
25
8
49
25
8
0
0
0
255
255
255
255
255
255
255
255
255
255
255
255
255
255
255
255
255
255
255
255
255
255
255
255
255
255
255
255
255
255
255
255
255
0
0
0
222
82
66
173
59
33
0
0
0
0
0
0
0
0
0
222
82
66
222
82
66
0
0
0
173
59
33
115
49
33
255
255
255
255
255
255
255
255
255
255
255
255
115
49
33
222
82
66
222
82
66
222
82
66
222
82
66
222
82
66
173
59
33
222
82
66
0
0
0
25
33
49
25
33
49
25
33
49
0
0
0
173
59
33
173
59
33
222
82
66
0
0
0
49
25
8
49
25
8
49
25
8
49
25
8
0
0
0
255
255
255
255
255
255
255
255
255
255
255
255
255
255
255
255
255
255
255
255
255
255
255
255
255
255
255
255
255
255
255
255
255
255
255
255
0
0
0
0
0
0
255
255
255
255
255
255
0
0
0
222
82
66
173
59
33
0
0
0
255
255
255
255
255
255
255
255
255
255
255
255
255
255
255
255
255
255
255
255
255
115
49
33
222
82
66
222
82
66
222
82
66
222
82
66
173
59
33
222
82
66
0
0
0
25
33
49
25
33
49
0
0
0
173
59
33
173
59
33
173
59
33
222
82
66
0
0
0
49
25
8
49
25
8
0
0
0
0
0
0
255
255
255
255
255
255
255
255
255
255
255
255
255
255
255
255
255
255
255
255
255
255
255
255
255
255
255
255
255
255
255
255
255
255
255
255
255
255
255
255
255
255
255
255
255
255
255
255
255
255
255
255
255
255
0
0
0
0
0
0
255
255
255
255
255
255
255
255
255
255
255
255
255
255
255
255
255
255
255
255
255
255
255
255
255
255
255
115
49
33
222
82
66
222
82
66
173
59
33
222
82
66
222
82
66
0
0
0
25
33
49
0
0
0
173
59
33
173
59
33
173
59
33
173
59
33
115
49
33
222
82
66
0
0
0
0
0
0
255
255
255
255
255
255
255
255
255
255
255
255
255
255
255
255
255
255
255
255
255
255
255
255
255
255
255
255
255
255
255
255
255
255
255
255
255
255
255
255
255
255
255
255
255
255
255
255
255
255
255
255
255
255
255
255
255
255
255
255
255
255
255
255
255
255
255
255
255
255
255
255
255
255
255
255
255
255
255
255
255
255
255
255
255
255
255
255
255
255
255
255
255
255
255
255
115
49
33
222
82
66
173
59
33
222
82
66
115
49
33
25
33
49
25
33
49
0
0
0
115
49
33
115
49
33
173
59
33
173
59
33
115
49
33
222
82
66
0
0
0
255
255
255
255
255
255
255
255
255
255
255
255
255
255
255
255
255
255
255
255
255
255
255
255
255
255
255
255
255
255
255
255
255
255
255
255
255
255
255
255
255
255
255
255
255
255
255
255
255
255
255
255
255
255
255
255
255
255
255
255
255
255
255
255
255
255
255
255
255
255
255
255
255
255
255
255
255
255
255
255
255
255
255
255
255
255
255
255
255
255
255
255
255
255
255
255
0
0
0
49
66
99
115
49
33
222
82
66
222
82
66
0
0
0
25
33
49
25
33
49
0
0
0
255
255
255
255
255
255
115
49
33
115
49
33
0
0
0
0
0
0
255
255
255
255
255
255
255
255
255
255
255
255
255
255
255
255
255
255
255
255
255
255
255
255
255
255
255
255
255
255
255
255
255
255
255
255
255
255
255
255
255
255
255
255
255
255
255
255
255
255
255
255
255
255
255
255
255
255
255
255
255
255
255
255
255
255
255
255
255
255
255
255
255
255
255
255
255
255
255
255
255
255
255
255
255
255
255
255
255
255
255
255
255
255
255
255
0
0
0
49
66
99
49
66
99
49
66
99
115
49
33
115
49
33
25
33
49
25
33
49
25
33
49
0
0
0
255
255
255
255
255
255
255
255
255
255
255
255
255
255
255
255
255
255
255
255
255
255
255
255
255
255
255
255
255
255
255
255
255
255
255
255
255
255
255
255
255
255
255
255
255
255
255
255
255
255
255
255
255
255
255
255
255
255
255
255
255
255
255
255
255
255
255
255
255
255
255
255
255
255
255
255
255
255
255
255
255
255
255
255
255
255
255
255
255
255
255
255
255
255
255
255
255
255
255
255
255
255
255
255
255
90
59
74
90
59
74
173
59
33
49
66
99
49
66
99
49
66
99
49
66
99
49
66
99
25
33
49
25
33
49
25
33
49
25
33
49
0
0
0
255
255
255
255
255
255
255
255
255
255
255
255
255
255
255
255
255
255
255
255
255
255
255
255
255
255
255
255
255
255
255
255
255
255
255
255
255
255
255
255
255
255
255
255
255
255
255
255
255
255
255
255
255
255
255
255
255
255
255
255
255
255
255
255
255
255
255
255
255
255
255
255
255
255
255
255
255
255
255
255
255
255
255
255
255
255
255
255
255
255
255
255
255
255
255
255
255
255
255
140
72
58
90
59
74
247
164
132
140
72
58
222
82
66
222
82
66
25
33
49
25
33
49
25
33
49
49
66
99
49
66
99
49
66
99
49
66
99
25
33
49
25
33
49
0
0
0
255
255
255
255
255
255
255
255
255
255
255
255
255
255
255
255
255
255
255
255
255
255
255
255
255
255
255
255
255
255
255
255
255
255
255
255
255
255
255
255
255
255
255
255
255
255
255
255
255
255
255
255
255
255
255
255
255
255
255
255
255
255
255
255
255
255
255
255
255
255
255
255
255
255
255
255
255
255
255
255
255
255
255
255
255
255
255
255
255
255
255
255
255
140
72
58
247
164
132
190
108
49
247
164
132
25
33
49
222
82
66
222
82
66
222
82
66
255
255
255
181
181
197
25
33
49
25
33
49
25
33
49
49
66
99
49
66
99
49
66
99
0
0
0
255
255
255
255
255
255
255
255
255
255
255
255
255
255
255
255
255
255
255
255
255
255
255
255
255
255
255
255
255
255
255
255
255
255
255
255
255
255
255
255
255
255
255
255
255
255
255
255
255
255
255
255
255
255
255
255
255
255
255
255
255
255
255
255
255
255
255
255
255
255
255
255
255
255
255
255
255
255
255
255
255
255
255
255
255
255
255
255
255
255
255
255
255
140
72
58
247
164
132
190
108
49
247
164
132
25
33
49
25
33
49
222
82
66
222
82
66
255
255
255
181
181
197
255
255
255
222
82
66
173
59
33
25
33
49
25
33
49
49
66
99
25
33
49
255
255
255
0
0
0
0
0
0
0
0
0
255
255
255
255
255
255
255
255
255
255
255
255
255
255
255
255
255
255
255
255
255
255
255
255
255
255
255
255
255
255
255
255
255
255
255
255
255
255
255
255
255
255
255
255
255
255
255
255
255
255
255
255
255
255
255
255
255
255
255
255
255
255
255
255
255
255
255
255
255
255
255
255
255
255
255
255
255
255
140
72
58
247
164
132
190
108
49
247
164
132
25
33
49
49
66
99
49
66
99
25
33
49
25
33
49
173
59
33
181
181
197
255
255
255
222
82
66
222
82
66
222
82
66
222
82
66
173
59
33
0
0
0
0
0
0
115
49
33
222
82
66
173
59
33
0
0
0
255
255
255
255
255
255
255
255
255
255
255
255
255
255
255
255
255
255
255
255
255
255
255
255
255
255
255
255
255
255
255
255
255
255
255
255
255
255
255
255
255
255
255
255
255
255
255
255
255
255
255
255
255
255
255
255
255
255
255
255
255
255
255
255
255
255
255
255
255
255
255
255
255
255
255
140
72
58
247
164
132
190
108
49
247
164
132
25
33
49
49
66
99
49
66
99
49
66
99
49
66
99
25
33
49
25
33
49
25
33
49
222
82
66
222
82
66
222
82
66
222
82
66
222
82
66
222
82
66
0
0
0
173
59
33
173
59
33
173
59
33
173
59
33
0
0
0
255
255
255
255
255
255
255
255
255
255
255
255
255
255
255
255
255
255
255
255
255
255
255
255
255
255
255
255
255
255
255
255
255
255
255
255
255
255
255
255
255
255
255
255
255
255
255
255
255
255
255
255
255
255
255
255
255
255
255
255
255
255
255
255
255
255
255
255
255
255
255
255
140
72
58
247
164
132
190
108
49
247
164
132
25
33
49
49
66
99
49
66
99
49
66
99
49
66
99
49
66
99
49
66
99
49
66
99
25
33
49
25
33
49
173
59
33
222
82
66
222
82
66
173
59
33
0
0
0
173
59
33
173
59
33
173
59
33
115
49
33
0
0
0
255
255
255
255
255
255
255
255
255
255
255
255
255
255
255
255
255
255
255
255
255
255
255
255
255
255
255
255
255
255
255
255
255
255
255
255
255
255
255
255
255
255
255
255
255
255
255
255
255
255
255
255
255
255
255
255
255
255
255
255
255
255
255
255
255
255
255
255
255
255
255
255
140
72
58
247
164
132
190
108
49
247
164
132
25
33
49
49
66
99
49
66
99
49
66
99
49
66
99
49
66
99
49
66
99
49
66
99
0
0
0
25
33
49
25
33
49
25
33
49
0
0
0
0
0
0
49
66
99
0
0
0
115
49
33
115
49
33
181
181
197
0
0
0
255
255
255
255
255
255
255
255
255
255
255
255
255
255
255
255
255
255
255
255
255
255
255
255
255
255
255
255
255
255
255
255
255
255
255
255
255
255
255
255
255
255
255
255
255
255
255
255
255
255
255
255
255
255
255
255
255
255
255
255
255
255
255
255
255
255
255
255
255
255
255
255
140
72
58
247
164
132
190
108
49
247
164
132
140
72
58
25
33
49
49
66
99
49
66
99
25
33
49
25
33
49
25
33
49
49
66
99
0
0
0
25
33
49
0
0
0
0
0
0
247
164
132
247
164
132
247
164
132
0
0
0
181
181
197
181
181
197
0
0
0
255
255
255
255
255
255
255
255
255
255
255
255
255
255
255
255
255
255
255
255
255
255
255
255
255
255
255
255
255
255
255
255
255
255
255
255
255
255
255
255
255
255
255
255
255
255
255
255
255
255
255
255
255
255
255
255
255
255
255
255
255
255
255
255
255
255
255
255
255
255
255
255
255
255
255
140
72
58
247
164
132
190
108
49
247
164
132
140
72
58
25
33
49
49
66
99
25
33
49
247
164
132
247
164
132
247
164
132
247
164
132
49
66
99
0
0
0
247
164
132
247
164
132
247
164
132
247
164
132
247
164
132
247
164
132
90
59
74
0
0
0
255
255
255
255
255
255
255
255
255
255
255
255
255
255
255
255
255
255
255
255
255
255
255
255
255
255
255
255
255
255
255
255
255
255
255
255
255
255
255
255
255
255
255
255
255
255
255
255
255
255
255
255
255
255
255
255
255
255
255
255
255
255
255
255
255
255
255
255
255
255
255
255
255
255
255
255
255
255
90
59
74
190
108
49
140
72
58
247
164
132
140
72
58
25
33
49
190
108
49
247
164
132
247
164
132
247
164
132
247
164
132
247
164
132
247
164
132
0
0
0
247
164
132
247
164
132
247
164
132
247
164
132
247
164
132
247
164
132
90
59
74
255
255
255
255
255
255
255
255
255
255
255
255
255
255
255
255
255
255
255
255
255
255
255
255
255
255
255
255
255
255
255
255
255
255
255
255
255
255
255
255
255
255
255
255
255
255
255
255
255
255
255
255
255
255
255
255
255
255
255
255
255
255
255
255
255
255
255
255
255
255
255
255
255
255
255
255
255
255
255
255
255
90
59
74
190
108
49
140
72
58
190
108
49
140
72
58
25
33
49
247
164
132
247
164
132
247
164
132
247
164
132
247
164
132
247
164
132
247
164
132
0
0
0
247
164
132
247
164
132
247
164
132
247
164
132
247
164
132
247
164
132
140
72
58
255
255
255
255
255
255
255
255
255
255
255
255
255
255
255
255
255
255
255
255
255
255
255
255
255
255
255
255
255
255
255
255
255
255
255
255
255
255
255
255
255
255
255
255
255
255
255
255
255
255
255
255
255
255
255
255
255
255
255
255
255
255
255
255
255
255
255
255
255
255
255
255
255
255
255
255
255
255
255
255
255
90
59
74
190
108
49
140
72
58
190
108
49
140
72
58
255
255
255
140
72
58
247
164
132
247
164
132
247
164
132
247
164
132
247
164
132
247
164
132
90
59
74
140
72
58
247
164
132
247
164
132
247
164
132
247
164
132
247
164
132
247
164
132
0
0
0
255
255
255
255
255
255
255
255
255
255
255
255
255
255
255
255
255
255
255
255
255
255
255
255
255
255
255
255
255
255
255
255
255
255
255
255
255
255
255
255
255
255
255
255
255
255
255
255
255
255
255
255
255
255
255
255
255
255
255
255
255
255
255
255
255
255
255
255
255
255
255
255
255
255
255
255
255
255
255
255
255
25
33
49
190
108
49
140
72
58
190
108
49
140
72
58
90
59
74
247
164
132
247
164
132
247
164
132
247
164
132
247
164
132
247
164
132
90
59
74
90
59
74
247
164
132
247
164
132
247
164
132
247
164
132
247
164
132
247
164
132
140
72
58
255
255
255
255
255
255
255
255
255
255
255
255
255
255
255
255
255
255
255
255
255
255
255
255
255
255
255
255
255
255
255
255
255
255
255
255
255
255
255
255
255
255
255
255
255
255
255
255
255
255
255
255
255
255
255
255
255
255
255
255
255
255
255
255
255
255
255
255
255
255
255
255
255
255
255
255
255
255
255
255
255
25
33
49
190
108
49
90
59
74
190
108
49
90
59
74
90
59
74
190
108
49
247
164
132
247
164
132
247
164
132
247
164
132
247
164
132
247
164
132
0
0
0
140
72
58
247
164
132
247
164
132
247
164
132
247
164
132
247
164
132
247
164
132
0
0
0
255
255
255
255
255
255
255
255
255
255
255
255
255
255
255
255
255
255
255
255
255
255
255
255
255
255
255
255
255
255
255
255
255
255
255
255
255
255
255
255
255
255
255
255
255
255
255
255
255
255
255
255
255
255
255
255
255
255
255
255
255
255
255
255
255
255
255
255
255
255
255
255
255
255
255
255
255
255
255
255
255
25
33
49
90
59
74
140
72
58
140
72
58
25
33
49
90
59
74
247
164
132
247
164
132
247
164
132
247
164
132
247
164
132
247
164
132
0
0
0
90
59
74
247
164
132
247
164
132
247
164
132
247
164
132
247
164
132
247
164
132
90
59
74
255
255
255
255
255
255
255
255
255
255
255
255
255
255
255
255
255
255
255
255
255
255
255
255
255
255
255
255
255
255
255
255
255
255
255
255
255
255
255
255
255
255
255
255
255
255
255
255
255
255
255
255
255
255
255
255
255
255
255
255
255
255
255
255
255
255
255
255
255
255
255
255
255
255
255
255
255
255
255
255
255
255
255
255
255
255
255
25
33
49
25
33
49
255
255
255
90
59
74
247
164
132
247
164
132
247
164
132
247
164
132
247
164
132
247
164
132
0
0
0
255
255
255
90
59
74
247
164
132
247
164
132
247
164
132
247
164
132
247
164
132
247
164
132
0
0
0
255
255
255
255
255
255
255
255
255
255
255
255
255
255
255
255
255
255
255
255
255
255
255
255
255
255
255
255
255
255
255
255
255
255
255
255
255
255
255
255
255
255
255
255
255
255
255
255
255
255
255
255
255
255
255
255
255
255
255
255
255
255
255
255
255
255
255
255
255
255
255
255
255
255
255
255
255
255
255
255
255
255
255
255
255
255
255
255
255
255
255
255
255
90
59
74
190
108
49
247
164
132
247
164
132
247
164
132
247
164
132
247
164
132
0
0
0
255
255
255
90
59
74
247
164
132
247
164
132
247
164
132
247
164
132
247
164
132
247
164
132
90
59
74
255
255
255
255
255
255
255
255
255
255
255
255
255
255
255
255
255
255
255
255
255
255
255
255
255
255
255
255
255
255
255
255
255
255
255
255
255
255
255
255
255
255
255
255
255
255
255
255
255
255
255
255
255
255
255
255
255
255
255
255
255
255
255
255
255
255
255
255
255
255
255
255
255
255
255
255
255
255
255
255
255
255
255
255
255
255
255
255
255
255
90
59
74
190
108
49
190
108
49
140
72
58
247
164
132
247
164
132
190
108
49
90
59
74
255
255
255
255
255
255
255
255
255
90
59
74
247
164
132
247
164
132
247
164
132
247
164
132
190
108
49
190
108
49
0
0
0
255
255
255
255
255
255
255
255
255
255
255
255
255
255
255
255
255
255
255
255
255
255
255
255
255
255
255
255
255
255
255
255
255
255
255
255
255
255
255
255
255
255
255
255
255
255
255
255
255
255
255
255
255
255
255
255
255
255
255
255
255
255
255
255
255
255
255
255
255
255
255
255
255
255
255
255
255
255
255
255
255
90
59
74
90
59
74
190
108
49
190
108
49
190
108
49
140
72
58
190
108
49
190
108
49
190
108
49
0
0
0
255
255
255
255
255
255
255
255
255
90
59
74
247
164
132
247
164
132
247
164
132
247
164
132
90
59
74
190
108
49
190
108
49
0
0
0
255
255
255
255
255
255
255
255
255
255
255
255
255
255
255
255
255
255
255
255
255
255
255
255
255
255
255
255
255
255
255
255
255
255
255
255
255
255
255
255
255
255
255
255
255
255
255
255
255
255
255
255
255
255
255
255
255
255
255
255
255
255
255
255
255
255
255
255
255
255
255
255
255
255
255
90
59
74
140
72
58
190
108
49
190
108
49
190
108
49
190
108
49
190
108
49
190
108
49
190
108
49
0
0
0
255
255
255
255
255
255
255
255
255
255
255
255
255
255
255
0
0
0
90
59
74
247
164
132
190
108
49
90
59
74
190
108
49
190
108
49
190
108
49
0
0
0
0
0
0
255
255
255
255
255
255
255
255
255
255
255
255
255
255
255
255
255
255
255
255
255
255
255
255
255
255
255
255
255
255
255
255
255
255
255
255
255
255
255
255
255
255
255
255
255
255
255
255
255
255
255
255
255
255
255
255
255
255
255
255
255
255
255
255
255
255
0
0
0
25
33
49
190
108
49
190
108
49
190
108
49
190
108
49
190
108
49
190
108
49
190
108
49
0
0
0
255
255
255
255
255
255
255
255
255
255
255
255
255
255
255
255
255
255
255
255
255
255
255
255
0
0
0
190
108
49
190
108
49
190
108
49
190
108
49
190
108
49
25
33
49
25
33
49
0
0
0
255
255
255
255
255
255
255
255
255
255
255
255
255
255
255
255
255
255
255
255
255
255
255
255
255
255
255
255
255
255
255
255
255
255
255
255
255
255
255
255
255
255
255
255
255
255
255
255
255
255
255
255
255
255
255
255
255
255
255
255
0
0
0
25
33
49
25
33
49
190
108
49
190
108
49
190
108
49
190
108
49
190
108
49
190
108
49
0
0
0
255
255
255
255
255
255
255
255
255
255
255
255
255
255
255
255
255
255
255
255
255
255
255
255
255
255
255
255
255
255
0
0
0
190
108
49
190
108
49
190
108
49
90
59
74
25
33
49
25
33
49
0
0
0
0
0
0
255
255
255
255
255
255
255
255
255
255
255
255
255
255
255
255
255
255
255
255
255
255
255
255
255
255
255
255
255
255
255
255
255
255
255
255
255
255
255
255
255
255
255
255
255
255
255
255
255
255
255
255
255
255
255
255
255
0
0
0
25
33
49
25
33
49
25
33
49
190
108
49
190
108
49
190
108
49
190
108
49
0
0
0
255
255
255
255
255
255
255
255
255
255
255
255
255
255
255
255
255
255
255
255
255
255
255
255
255
255
255
255
255
255
255
255
255
0
0
0
90
59
74
190
108
49
190
108
49
25
33
49
25
33
49
25
33
49
0
0
0
25
33
49
255
255
255
255
255
255
255
255
255
255
255
255
255
255
255
255
255
255
255
255
255
255
255
255
255
255
255
255
255
255
255
255
255
255
255
255
255
255
255
255
255
255
255
255
255
255
255
255
255
255
255
255
255
255
25
33
49
25
33
49
0
0
0
25
33
49
25
33
49
25
33
49
190
108
49
190
108
49
90
59
74
0
0
0
255
255
255
255
255
255
255
255
255
255
255
255
255
255
255
255
255
255
255
255
255
255
255
255
255
255
255
255
255
255
255
255
255
255
255
255
0
0
0
25
33
49
25
33
49
25
33
49
25
33
49
0
0
0
25
33
49
25
33
49
0
0
0
255
255
255
255
255
255
255
255
255
255
255
255
255
255
255
255
255
255
255
255
255
255
255
255
255
255
255
255
255
255
255
255
255
255
255
255
255
255
255
255
255
255
255
255
255
255
255
255
0
0
0
25
33
49
25
33
49
25
33
49
0
0
0
25
33
49
25
33
49
25
33
49
25
33
49
0
0
0
255
255
255
255
255
255
255
255
255
255
255
255
255
255
255
255
255
255
255
255
255
255
255
255
255
255
255
255
255
255
255
255
255
255
255
255
255
255
255
255
255
255
0
0
0
0
0
0
0
0
0
0
0
0
25
33
49
25
33
49
25
33
49
0
0
0
255
255
255
255
255
255
255
255
255
255
255
255
255
255
255
255
255
255
255
255
255
255
255
255
255
255
255
255
255
255
255
255
255
255
255
255
255
255
255
255
255
255
255
255
255
0
0
0
25
33
49
25
33
49
25
33
49
25
33
49
25
33
49
0
0
0
0
0
0
0
0
0
0
0
0
255
255
255
255
255
255
255
255
255
255
255
255
255
255
255
255
255
255
255
255
255
255
255
255
255
255
255
255
255
255
255
255
255
255
255
255
255
255
255
255
255
255
255
255
255
255
255
255
255
255
255
255
255
255
25
33
49
25
33
49
25
33
49
25
33
49
25
33
49
0
0
0
255
255
255
255
255
255
255
255
255
255
255
255
255
255
255
255
255
255
255
255
255
255
255
255
255
255
255
255
255
255
255
255
255
255
255
255
255
255
255
0
0
0
25
33
49
25
33
49
25
33
49
25
33
49
0
0
0
0
0
0
255
255
255
255
255
255
255
255
255
255
255
255
255
255
255
255
255
255
255
255
255
255
255
255
255
255
255
255
255
255
255
255
255
255
255
255
255
255
255
255
255
255
255
255
255
255
255
255
255
255
255
255
255
255
255
255
255
255
255
255
255
255
255
255
255
255
255
255
255
0
0
0
25
33
49
25
33
49
25
33
49
25
33
49
0
0
0
255
255
255
255
255
255
255
255
255
255
255
255
255
255
255
255
255
255
255
255
255
255
255
255
255
255
255
255
255
255
255
255
255
0
0
0
25
33
49
25
33
49
25
33
49
25
33
49
0
0
0
255
255
255
255
255
255
255
255
255
255
255
255
255
255
255
255
255
255
255
255
255
255
255
255
255
255
255
255
255
255
255
255
255
255
255
255
255
255
255
255
255
255
255
255
255
255
255
255
255
255
255
255
255
255
255
255
255
255
255
255
255
255
255
255
255
255
255
255
255
255
255
255
255
255
255
255
255
255
25
33
49
0
0
0
0
0
0
25
33
49
25
33
49
255
255
255
255
255
255
255
255
255
255
255
255
255
255
255
255
255
255
255
255
255
255
255
255
255
255
255
255
255
255
255
255
255
49
66
99
25
33
49
25
33
49
25
33
49
0
0
0
255
255
255
255
255
255
255
255
255
255
255
255
255
255
255
255
255
255
255
255
255
255
255
255
255
255
255
255
255
255
255
255
255
255
255
255
255
255
255
255
255
255
255
255
255
255
255
255
255
255
255
255
255
255
255
255
255
255
255
255
255
255
255
255
255
255
255
255
255
255
255
255
255
255
255
255
255
255
255
255
255
0
0
0
25
33
49
25
33
49
25
33
49
25
33
49
0
0
0
255
255
255
255
255
255
255
255
255
255
255
255
255
255
255
255
255
255
255
255
255
255
255
255
255
255
255
0
0
0
49
66
99
49
66
99
25
33
49
0
0
0
255
255
255
255
255
255
255
255
255
255
255
255
255
255
255
255
255
255
255
255
255
255
255
255
255
255
255
255
255
255
255
255
255
255
255
255
255
255
255
255
255
255
255
255
255
255
255
255
255
255
255
255
255
255
255
255
255
255
255
255
255
255
255
255
255
255
255
255
255
255
255
255
255
255
255
255
255
255
255
255
255
255
255
255
0
0
0
25
33
49
25
33
49
25
33
49
25
33
49
0
0
0
255
255
255
255
255
255
255
255
255
255
255
255
255
255
255
255
255
255
255
255
255
255
255
255
255
255
255
0
0
0
49
66
99
49
66
99
49
66
99
25
33
49
255
255
255
255
255
255
255
255
255
255
255
255
255
255
255
255
255
255
255
255
255
255
255
255
255
255
255
255
255
255
255
255
255
255
255
255
255
255
255
255
255
255
255
255
255
255
255
255
255
255
255
255
255
255
255
255
255
255
255
255
255
255
255
255
255
255
255
255
255
255
255
255
255
255
255
255
255
255
255
255
255
255
255
255
0
0
0
0
0
0
0
0
0
0
0
0
0
0
0
25
33
49
0
0
0
255
255
255
255
255
255
255
255
255
255
255
255
255
255
255
255
255
255
255
255
255
255
255
255
25
33
49
49
66
99
49
66
99
49
66
99
49
66
99
0
0
0
255
255
255
255
255
255
255
255
255
255
255
255
255
255
255
255
255
255
255
255
255
255
255
255
255
255
255
255
255
255
255
255
255
255
255
255
255
255
255
255
255
255
255
255
255
255
255
255
255
255
255
255
255
255
255
255
255
255
255
255
255
255
255
255
255
255
255
255
255
255
255
255
255
255
255
255
255
255
0
0
0
49
66
99
49
66
99
49
66
99
49
66
99
25
33
49
0
0
0
0
0
0
255
255
255
255
255
255
255
255
255
255
255
255
255
255
255
255
255
255
255
255
255
25
33
49
49
66
99
25
33
49
25
33
49
25
33
49
25
33
49
25
33
49
255
255
255
255
255
255
255
255
255
255
255
255
255
255
255
255
255
255
255
255
255
255
255
255
255
255
255
255
255
255
255
255
255
255
255
255
255
255
255
255
255
255
255
255
255
255
255
255
255
255
255
255
255
255
255
255
255
255
255
255
255
255
255
255
255
255
255
255
255
255
255
255
255
255
255
255
255
255
0
0
0
25
33
49
25
33
49
25
33
49
25
33
49
25
33
49
25
33
49
0
0
0
255
255
255
255
255
255
255
255
255
255
255
255
255
255
255
255
255
255
255
255
255
0
0
0
25
33
49
49
66
99
49
66
99
49
66
99
49
66
99
49
66
99
0
0
0
255
255
255
255
255
255
255
255
255
255
255
255
255
255
255
255
255
255
255
255
255
255
255
255
255
255
255
255
255
255
255
255
255
255
255
255
255
255
255
255
255
255
255
255
255
255
255
255
255
255
255
255
255
255
255
255
255
255
255
255
255
255
255
255
255
255
255
255
255
255
255
255
255
255
255
255
255
255
0
0
0
0
0
0
0
0
0
0
0
0
0
0
0
0
0
0
255
255
255
255
255
255
255
255
255
255
255
255
255
255
255
255
255
255
255
255
255
255
255
255
0
0
0
49
66
99
49
66
99
49
66
99
49
66
99
49
66
99
49
66
99
0
0
0
255
255
255
255
255
255
255
255
255
255
255
255
255
255
255
255
255
255
255
255
255
255
255
255
255
255
255
255
255
255
255
255
255
255
255
255
255
255
255
255
255
255
255
255
255
255
255
255
255
255
255
255
255
255
255
255
255
255
255
255
255
255
255
255
255
255
255
255
255
255
255
255
255
255
255
255
255
255
255
255
255
255
255
255
255
255
255
255
255
255
255
255
255
255
255
255
255
255
255
255
255
255
255
255
255
255
255
255
255
255
255
255
255
255
255
255
255
255
255
255
255
255
255
0
0
0
0
0
0
0
0
0
0
0
0
0
0
0
0
0
0
255
255
255
255
255
255
255
255
255
255
255
255
255
255
255
255
255
255
255
255
255
255
255
255
255
255
255
255
255
255
255
255
255
255
255
255
255
255
255
255
255
255
255
255
255
255
255
255
255
255
255
255
255
255
255
255
255
255
255
255
255
255
255
255
255
255
255
255
255
255
255
255
255
255
255
255
255
255
255
255
255
255
255
255
255
255
255
255
255
255
255
255
255
255
255
255
255
255
255
255
255
255
255
255
255
255
255
255
255
255
255
255
255
255
255
255
255
255
255
255
255
255
255
255
255
255
255
255
255
255
255
255
255
255
255
255
255
255
255
255
255
255
255
255
255
255
255
255
255
255
255
255
255
255
255
255
255
255
255
255
255
255
255
255
255
255
255
255
255
255
255
255
255
255
255
255
255
255
255
255
255
255
255
255
255
255
255
255
255
255
255
255
255
255
255
255
255
255
255
255
255
255
255
255
255
255
255
255
255
255
255
255
255
255
255
255
255
255
255
255
255
255
255
255
255
255
255
255
255
255
255
255
255
255
255
255
255
255
255
255
255
255
255
255
255
255
255
255
255
255
255
255
255
255
255
